<svg width="16" height="17" viewBox="0 0 16 17" fill="none" xmlns="http://www.w3.org/2000/svg">
<path d="M2.09088e-05 8.1035C0.0100396 3.68525 3.60175 0.0985444 8.00999 0.113572C12.4383 0.128601 16.02 3.72031 15.9999 8.12855C15.9799 12.5518 12.4082 16.1135 7.99997 16.1085C3.58171 16.1085 -0.00999781 12.5167 2.09088e-05 8.1035ZM8.79646 5.86432C8.79646 5.27822 8.80147 4.69213 8.79145 4.10102C8.78644 3.64517 8.43077 3.30453 7.98995 3.30954C7.55414 3.31455 7.20348 3.65018 7.20348 4.09601C7.19847 5.43852 7.19346 6.78103 7.20849 8.12354C7.20849 8.29887 7.29365 8.51928 7.41387 8.64451C8.21036 9.47106 9.0319 10.2776 9.84842 11.0891C10.0638 11.3045 10.3393 11.3596 10.6299 11.2694C11.216 11.0891 11.3863 10.3778 10.9455 9.92691C10.2842 9.25565 9.61298 8.58941 8.94173 7.92817C8.82651 7.81797 8.78644 7.70776 8.79145 7.55247C8.80147 6.99142 8.79646 6.42537 8.79646 5.86432Z" fill="#FDB21C"/>
</svg>
