<svg width="51" height="50" viewBox="0 0 51 50" fill="none" xmlns="http://www.w3.org/2000/svg">
<path d="M50.0957 20.3121V21.4862C49.7878 22.1971 49.5426 22.9434 49.1604 23.6126C46.8291 27.6907 44.4639 31.7492 42.1222 35.822C41.9735 36.086 41.8929 36.3827 41.8874 36.6856C41.8705 39.6131 41.877 42.5418 41.877 45.4692C41.877 48.2584 40.1275 50 37.3306 50H4.52474C4.36167 50 4.19857 50 4.0368 50C3.21851 49.9679 2.42759 49.6968 1.76171 49.2201C1.09584 48.7434 0.58423 48.0821 0.290129 47.3178C0.175328 47.0165 0.0957214 46.7008 0.000488281 46.3929V24.2179C0.0383206 24.1149 0.0852671 24.0144 0.112663 23.91C0.355312 22.9838 0.806711 22.1619 1.60119 21.631C2.18172 21.2396 2.50656 20.7386 2.84053 20.1555C6.28979 14.1389 9.75729 8.13308 13.2431 2.13818C13.533 1.61734 13.932 1.16519 14.4127 0.812621C14.8933 0.460049 15.4444 0.215351 16.0283 0.0952346C16.1028 0.0710765 16.1745 0.0391552 16.2423 0H17.5143C18.0256 0.198294 18.5722 0.335272 19.0445 0.602708C22.2576 2.4291 25.4551 4.28027 28.6552 6.13014C29.2684 6.48368 29.4497 7.04986 29.1405 7.55864C28.8314 8.06742 28.2874 8.16004 27.686 7.81955C26.8928 7.37078 26.1061 6.90636 25.3155 6.45628C22.9177 5.07518 20.5191 3.69452 18.1196 2.31429C17.0668 1.71159 15.8887 1.859 15.2104 2.75132C14.7238 3.39056 14.3585 4.12111 13.9215 4.83862L46.8056 23.7874C47.1069 23.2656 47.3692 22.8246 47.6301 22.3746C48.5433 20.8013 48.2302 19.6545 46.6582 18.7492C42.9758 16.6323 39.2948 14.5137 35.6151 12.3934C34.9863 12.0307 34.7971 11.4997 35.0932 10.9792C35.3894 10.4587 35.9621 10.3439 36.5752 10.6974C40.3715 12.8804 44.1661 15.0668 47.9589 17.2568C48.4808 17.546 48.9339 17.9448 49.2871 18.4258C49.6402 18.9069 49.8849 19.4587 50.0044 20.0433C50.0294 20.1347 50.0599 20.2244 50.0957 20.3121V20.3121ZM20.9609 22.6603H4.5234C2.82747 22.6603 1.95211 23.5291 1.95211 25.2029V45.5032C1.95211 47.1743 2.83272 48.0445 4.52474 48.0445H37.341C39.0487 48.0445 39.9149 47.173 39.9149 45.4536V25.2446C39.9149 23.5239 39.0513 22.655 37.3397 22.655L20.9609 22.6603ZM27.9481 20.6865L27.9599 20.6056L10.6092 10.6061C8.65233 13.9836 6.73075 17.3116 4.77781 20.6865H27.9481ZM37.341 20.7073L37.3671 20.6108L12.9587 6.5476L11.6007 8.89582C11.7115 8.97148 11.7755 9.01975 11.8446 9.05889C18.4962 12.8943 25.1494 16.728 31.8044 20.5599C31.9421 20.6429 32.098 20.6908 32.2584 20.6995C33.9491 20.706 35.6438 20.7021 37.3371 20.7021L37.341 20.7073ZM44.4652 27.855L45.8324 25.4899L41.5547 23.0282C41.967 24.0392 41.8705 25.0659 41.89 26.0821C41.8921 26.1574 41.9103 26.2314 41.9437 26.299C41.977 26.3665 42.0246 26.4261 42.0831 26.4735C42.8554 26.9366 43.646 27.3815 44.4613 27.8498L44.4652 27.855ZM41.9239 28.6495V32.2488C42.4784 31.29 42.9676 30.4368 43.4829 29.551L41.9239 28.6495Z" fill="#8A13D1"/>
<path d="M33.087 9.26243C33.0859 9.51782 32.9843 9.76252 32.8041 9.94347C32.6238 10.1244 32.3796 10.2271 32.1242 10.2291C31.869 10.224 31.6254 10.1213 31.4435 9.94231C31.2616 9.76328 31.1551 9.52142 31.1458 9.26635C31.1448 9.13583 31.1702 9.00646 31.2204 8.88596C31.2705 8.76546 31.3444 8.6563 31.4376 8.56498C31.5309 8.47367 31.6416 8.40208 31.7632 8.35448C31.8847 8.30688 32.0146 8.28424 32.145 8.28792C32.2714 8.28821 32.3965 8.31385 32.5128 8.36334C32.6291 8.41283 32.7342 8.48515 32.822 8.57602C32.9099 8.66689 32.9786 8.77447 33.0241 8.89237C33.0696 9.01028 33.091 9.13612 33.087 9.26243V9.26243Z" fill="#8A13D1"/>
<path d="M13.8563 32.2227C11.3472 32.2227 8.83857 32.2227 6.33033 32.2227C5.43018 32.2227 5.08968 31.8848 5.08838 30.9886C5.08838 29.7049 5.08838 28.4208 5.08838 27.1362C5.08838 26.3352 5.45107 25.9752 6.25599 25.9752C11.3542 25.9752 16.4529 25.9752 21.552 25.9752C22.323 25.9752 22.6935 26.3457 22.6974 27.1114C22.7026 28.4447 22.7026 29.778 22.6974 31.1112C22.6974 31.8457 22.3164 32.2201 21.578 32.2214C19.0046 32.2275 16.4307 32.2279 13.8563 32.2227ZM20.721 27.9594H7.08567V30.2437H20.721V27.9594Z" fill="#FDB21C"/>
<path d="M31.6192 34.8775C30.7713 34.8775 29.9233 34.8893 29.078 34.8775C27.5973 34.8527 26.5275 33.8704 26.4688 32.3988C26.4166 31.0838 26.4153 29.7636 26.4688 28.4499C26.5288 26.9875 27.622 25.9856 29.0845 25.9713C30.7786 25.9608 32.4724 25.9608 34.1658 25.9713C35.6803 25.9817 36.7749 27.0814 36.7853 28.5987C36.7958 29.8162 36.7958 31.0338 36.7853 32.2514C36.7723 33.7517 35.7064 34.8332 34.2062 34.8606C33.3452 34.8906 32.4842 34.8775 31.6192 34.8775ZM31.6127 32.9207C32.4267 32.9207 33.2408 32.9207 34.0535 32.9207C34.6197 32.9207 34.8271 32.7159 34.8298 32.164C34.8367 31.0117 34.8367 29.8589 34.8298 28.7056C34.8298 28.129 34.6158 27.9229 34.0235 27.9229C32.4137 27.9229 30.8047 27.9229 29.1966 27.9229C28.6357 27.9229 28.4139 28.1277 28.4139 28.6821C28.4035 29.8354 28.4035 30.9886 28.4139 32.1419C28.4139 32.7276 28.6213 32.9142 29.2254 32.9246C30.0185 32.9311 30.8156 32.9259 31.6127 32.9259V32.9207Z" fill="#FDB21C"/>
<path d="M11.3997 42.7714C13.093 42.7714 14.7863 42.7714 16.4796 42.7714C17.2063 42.7714 17.6368 43.1276 17.6537 43.7238C17.6668 44.3434 17.2285 44.7218 16.4796 44.7218C13.0773 44.7218 9.67507 44.7218 6.27277 44.7218C5.55526 44.7218 5.11171 44.3565 5.09866 43.7681C5.08562 43.1798 5.54088 42.7728 6.27927 42.7714C7.9839 42.7697 9.6907 42.7697 11.3997 42.7714Z" fill="#FDB21C"/>
<path d="M8.13187 39.4513C7.47959 39.4513 6.82731 39.4578 6.17503 39.4513C5.52274 39.4448 5.07788 39.0352 5.08831 38.4586C5.09875 37.9015 5.52665 37.5075 6.16197 37.5036C7.4961 37.4958 8.83066 37.4958 10.1657 37.5036C10.8323 37.5036 11.2602 37.9106 11.2485 38.4951C11.2394 39.0587 10.818 39.4435 10.1787 39.4513C9.49905 39.4578 8.81546 39.4513 8.13187 39.4513Z" fill="#FDB21C"/>
<path d="M16.721 37.4984C17.3733 37.4984 18.0256 37.4919 18.6779 37.4984C19.3302 37.5049 19.775 37.9067 19.7672 38.4872C19.7594 39.0678 19.3354 39.4435 18.7001 39.4474C17.3651 39.4552 16.0305 39.4552 14.6964 39.4474C14.0336 39.4474 13.5992 39.0391 13.607 38.4598C13.6149 37.8806 14.048 37.5049 14.7225 37.4984C15.3969 37.4919 16.0531 37.4984 16.721 37.4984Z" fill="#FDB21C"/>
<path d="M25.2438 37.4984C25.896 37.4984 26.5483 37.4918 27.2006 37.4984C27.8529 37.5049 28.2651 37.8897 28.2781 38.4507C28.2912 39.0116 27.8516 39.4422 27.1954 39.4461C25.8604 39.4539 24.5258 39.4539 23.1917 39.4461C22.5524 39.4461 22.1297 39.0547 22.1167 38.4937C22.1049 37.9093 22.5342 37.5062 23.1982 37.4984C23.8622 37.4905 24.5615 37.4984 25.2438 37.4984Z" fill="#FDB21C"/>
<path d="M33.7273 39.4513C33.0437 39.4513 32.3601 39.4591 31.6778 39.4513C31.0438 39.4408 30.6251 39.0456 30.6238 38.4794C30.6225 37.9132 31.0425 37.5088 31.6739 37.5036C33.0255 37.494 34.3761 37.494 35.7259 37.5036C36.3534 37.5036 36.7839 37.9184 36.7852 38.4755C36.7865 39.0325 36.3547 39.4408 35.7298 39.4513C35.0619 39.4591 34.3952 39.4513 33.7273 39.4513Z" fill="#FDB21C"/>
</svg>
