<svg width="16" height="17" viewBox="0 0 16 17" fill="none" xmlns="http://www.w3.org/2000/svg">
<path d="M16 7.30906C16 7.38901 16 7.45397 16 7.52392C16 9.54761 16 11.5763 16 13.6C16 14.7842 15.2755 15.7386 14.1662 16.0034C13.9613 16.0534 13.7465 16.0684 13.5366 16.0684C9.849 16.0734 6.16639 16.0734 2.47879 16.0684C1.21961 16.0684 0.255236 15.2639 0.040376 14.0497C0.0153922 13.9148 0.0153922 13.7749 0.0153922 13.6399C0.0153922 11.5913 0.0153922 9.53761 0.0153922 7.48894C0.0153922 7.43398 0.020389 7.37902 0.0253857 7.31406C5.34193 7.30906 10.6535 7.30906 16 7.30906Z" fill="#FDB21C"/>
<path d="M12.8021 2.50718C13.0719 2.50718 13.3167 2.50718 13.5616 2.50718C14.9657 2.51718 15.99 3.54151 16 4.9456C16 5.18544 16 5.43028 16 5.68512C10.6685 5.68512 5.35192 5.68512 0.0303828 5.68512C-0.0645555 4.69576 0.025386 3.77136 0.84985 3.07681C1.25459 2.73703 1.71928 2.53716 2.24894 2.51718C2.55874 2.50219 2.86854 2.51718 3.20332 2.51718C3.20332 2.23736 3.20332 1.97753 3.20332 1.7177C3.20332 1.46286 3.20332 1.20803 3.20332 0.953194C3.20832 0.468509 3.5381 0.123734 3.98781 0.11374C4.44751 0.103747 4.79728 0.443526 4.80728 0.92821C4.81727 1.37792 4.80728 1.82763 4.80728 2.27234C4.80728 2.34229 4.80728 2.40725 4.80728 2.49219C6.94089 2.49219 9.05951 2.49219 11.1981 2.49219C11.1981 2.34229 11.1981 2.20238 11.1981 2.06247C11.1981 1.68772 11.1931 1.31296 11.1981 0.938204C11.2081 0.453519 11.5479 0.11374 12.0076 0.11374C12.4673 0.118737 12.7971 0.468509 12.8021 0.953194C12.8071 1.46286 12.8021 1.97253 12.8021 2.50718Z" fill="#FDB21C"/>
</svg>
