<svg width="45" height="50" viewBox="0 0 45 50" fill="none" xmlns="http://www.w3.org/2000/svg">
<path d="M33.6513 49.9971C33.1364 49.7028 32.9354 49.2595 32.9648 48.6603C33.002 47.9453 32.9295 47.2245 32.9913 46.5134C33.0246 46.1211 33.1433 45.667 33.3777 45.3581C36.0414 41.8437 38.7258 38.3457 41.4307 34.864C41.6707 34.5687 41.848 34.2276 41.9519 33.8615C42.0558 33.4955 42.0839 33.1121 42.0348 32.7348C41.6955 29.3511 41.3816 25.9675 41.0649 22.58C40.9668 21.5423 40.5489 21.0108 39.7751 20.9774C39.4383 20.9556 39.1065 21.0683 38.8526 21.2908C38.5987 21.5133 38.4434 21.8273 38.4207 22.1641C38.404 22.3417 38.406 22.5221 38.406 22.7006C38.406 25.3869 38.3952 28.0732 38.406 30.7585C38.4348 31.8236 38.0856 32.8646 37.4203 33.6969C36.2709 35.1523 35.1538 36.6391 34.0289 38.1103C33.766 38.4545 33.4581 38.6987 33.002 38.6409C32.2518 38.5428 31.9085 37.715 32.3685 37.0717C32.8912 36.3449 33.462 35.6535 33.9906 34.9317C34.3398 34.456 34.3212 33.9077 33.9906 33.4821C33.6719 33.0741 33.108 32.9005 32.6333 33.1241C32.4024 33.2408 32.2012 33.4085 32.0448 33.6145C30.7528 35.2896 29.4703 36.972 28.1973 38.6615C27.3828 39.7329 26.9552 41.0486 26.9841 42.3942C26.9959 44.4617 26.9723 46.5291 26.9959 48.5965C27.0018 49.1968 26.8595 49.6754 26.3319 49.9981H25.7434C25.2011 49.7538 25.0157 49.3331 25.0216 48.7456C25.0422 46.6291 25.0383 44.5127 25.0275 42.3962C25.0051 40.5573 25.6144 38.7664 26.7536 37.3227C27.9305 35.7869 29.1722 34.2902 30.2559 32.6887C31.6349 30.6487 34.3359 30.4947 35.7707 32.5749C36.2846 32.0973 36.4572 31.4961 36.4572 30.8174C36.4514 28.017 36.4514 25.2169 36.4572 22.4172C36.4641 20.7185 37.438 19.4651 38.9935 19.0983C40.8569 18.6599 42.7312 19.9368 42.9342 21.8385C43.2206 24.5082 43.4569 27.1827 43.7139 29.8552C43.8002 30.7458 43.8619 31.6392 43.9757 32.5268C44.1424 33.8224 43.8365 34.9532 43.0264 35.9948C40.4006 39.3758 37.7934 42.7715 35.2048 46.1819C35.0455 46.4162 34.9545 46.6903 34.942 46.9734C34.9041 47.5582 34.9024 48.1449 34.9371 48.7299C34.9704 49.3184 34.7635 49.7372 34.2378 50L33.6513 49.9971Z" fill="#8A13D1"/>
<path d="M18.7034 49.9971C18.159 49.7568 17.9698 49.3351 17.9756 48.7486C17.9943 46.6821 17.9757 44.6157 17.9855 42.5482C18.0166 41.0548 17.5242 39.5976 16.5938 38.429C15.3629 36.852 14.1635 35.2494 12.9571 33.6537C12.6531 33.2516 12.2892 32.976 11.7645 33.0358C10.8514 33.1398 10.4111 34.1461 10.9583 34.916C11.4487 35.6025 12.0009 36.2498 12.4854 36.9422C12.6587 37.1902 12.7577 37.4824 12.7708 37.7847C12.7708 38.2133 12.4765 38.4967 12.0607 38.6085C11.6105 38.7272 11.2663 38.5408 10.9976 38.1927C10.2414 37.2119 9.49112 36.2312 8.74183 35.2504C8.32598 34.709 7.91799 34.1608 7.49038 33.6272C6.85996 32.8494 6.52751 31.8722 6.55277 30.8713C6.56846 28.1546 6.55865 25.436 6.55277 22.7183C6.55759 22.5072 6.5461 22.296 6.51843 22.0867C6.47832 21.7685 6.31978 21.4771 6.07439 21.2706C5.82899 21.0641 5.51478 20.9577 5.19441 20.9725C4.88135 20.973 4.57982 21.0907 4.34913 21.3023C4.11844 21.5139 3.97531 21.8042 3.94787 22.1161C3.7733 23.7657 3.62226 25.4183 3.46338 27.0699C3.27998 28.9794 3.1162 30.8949 2.90926 32.8005C2.82884 33.54 2.98183 34.1608 3.44181 34.7551C6.15949 38.2682 8.8546 41.7979 11.5684 45.313C11.8482 45.6529 11.9922 46.0844 11.9724 46.5242C11.9469 47.2392 11.9352 47.9581 11.9724 48.6721C12.0058 49.2743 11.8106 49.7126 11.2761 49.9951H10.6876C10.1659 49.7009 9.91677 49.2615 10.009 48.6642C10.2424 47.147 9.69216 45.9632 8.72612 44.7814C6.53216 42.1 4.53337 39.2607 2.34629 36.5734C1.19095 35.1533 0.787872 33.6822 1.00854 31.8805C1.40869 28.6028 1.66662 25.3094 1.98046 22.021C2.14621 20.2948 3.49183 19.0296 5.18265 19.0169C6.91271 19.0032 8.31127 20.2409 8.46525 21.9808C8.53292 22.7399 8.50054 23.5088 8.50152 24.2738C8.50152 26.4716 8.51035 28.6685 8.50152 30.8664C8.50152 31.5343 8.68786 32.1041 9.18805 32.5827C9.73728 31.7893 10.4434 31.2528 11.4075 31.1116C12.5432 30.9508 13.5416 31.2685 14.2458 32.162C15.7464 34.0656 17.2224 35.9869 18.6377 37.9583C19.5949 39.2901 19.9381 40.8476 19.9352 42.4825C19.9352 44.5176 19.9195 46.5517 19.944 48.5867C19.9509 49.185 19.8107 49.6656 19.2879 49.9912L18.7034 49.9971Z" fill="#8A13D1"/>
<path d="M36.1089 9.07592C36.1089 11.0119 36.2482 12.9597 36.0824 14.882C35.6048 20.4174 33.1293 24.9593 28.9032 28.5469C27.2016 29.9896 25.2803 31.0684 23.1992 31.8717C23.0128 31.9504 22.8122 31.9903 22.6099 31.989C22.4075 31.9876 22.2076 31.945 22.0223 31.8638C14.9 28.9471 10.65 23.7039 9.27241 16.1344C9.07625 15.0703 9.0488 13.966 9.03801 12.8783C9.00761 9.9488 9.02722 7.01731 9.02722 4.08779C9.02722 3.19039 9.22336 2.93932 10.0962 2.74415C14.1579 1.83597 18.2198 0.933016 22.2821 0.0352963C22.5033 -0.0117654 22.7319 -0.0117654 22.953 0.0352963C27.0329 0.93367 31.1109 1.83891 35.187 2.75101C35.9941 2.93147 36.2011 3.20805 36.2011 4.04366C36.2011 5.72075 36.2011 7.39752 36.2011 9.07396L36.1089 9.07592ZM10.9789 9.58297H10.8936C10.9838 11.5974 10.8887 13.6404 11.1996 15.6205C12.2617 22.3877 16.0328 27.1248 22.3096 29.8621C22.4989 29.9334 22.7074 29.9355 22.8981 29.868C29.3711 27.4161 34.1307 20.6185 34.2288 13.6482C34.269 10.7501 34.2346 7.85194 34.2484 4.9538C34.2484 4.62721 34.1434 4.51638 33.8276 4.44773C30.2243 3.65527 26.6249 2.84124 23.0216 2.04683C22.7543 1.98995 22.4779 1.98995 22.2106 2.04683C18.5916 2.84321 14.9755 3.6592 11.3555 4.45557C11.0544 4.52128 10.9632 4.63799 10.9691 4.93712C10.9858 6.48868 10.9789 8.03534 10.9789 9.58297Z" fill="#FDB21C"/>
<path d="M30.6068 7.43901C27.9931 6.85938 25.4235 6.28466 22.85 5.72759C22.6122 5.69079 22.3693 5.70416 22.137 5.76682C19.4546 6.35527 16.7761 6.96923 14.0947 7.55278C13.7968 7.62064 13.4863 7.6088 13.1944 7.51845C12.7884 7.37722 12.6109 7.00944 12.653 6.57692C12.7011 6.07281 13.0179 5.79918 13.4945 5.69424L17.6343 4.77037C19.0623 4.45162 20.4854 4.10934 21.9202 3.8259C22.3776 3.73275 22.8489 3.73075 23.307 3.82002C26.0728 4.40847 28.8306 5.0391 31.5905 5.65795C32.3594 5.83057 32.586 6.11793 32.586 6.91823C32.586 9.09943 32.6703 11.2855 32.5644 13.4628C32.2437 20.0584 29.0876 24.8661 23.2472 27.9241C23.0567 28.0328 22.8412 28.09 22.6219 28.09C22.4027 28.09 22.1872 28.0328 21.9967 27.9241C16.8968 25.3182 13.8299 21.2049 12.8453 15.5567C12.7496 14.9625 12.6887 14.3633 12.6629 13.762C12.6256 13.095 13.009 12.636 13.5789 12.6027C14.1487 12.5693 14.5596 13.0215 14.6126 13.7129C15.0049 19.1071 17.545 23.1534 22.2331 25.8518C22.5273 26.0214 22.7529 26.0018 23.0324 25.838C27.8528 23.0174 30.4273 18.8354 30.6235 13.2412C30.6862 11.4523 30.6352 9.65945 30.6352 7.86858C30.6284 7.73912 30.6156 7.61162 30.6068 7.43901Z" fill="#FDB21C"/>
<path d="M20.6718 16.0687L26.4759 10.8178C26.6446 10.6648 26.8074 10.5049 26.9849 10.3627C27.4488 9.98805 28.0255 10.0155 28.3835 10.4225C28.7415 10.8295 28.7121 11.3935 28.2766 11.8181C27.9392 12.1477 27.5813 12.4556 27.2321 12.7724L21.4456 18.0077C20.7532 18.6334 20.2687 18.6089 19.6714 17.9096C18.9332 17.0433 18.198 16.1743 17.4657 15.3028C17.0283 14.78 17.041 14.2181 17.4834 13.8316C17.9257 13.4452 18.4886 13.5109 18.9378 14.0278C19.5086 14.6898 20.0686 15.3587 20.6718 16.0687Z" fill="#FDB21C"/>
<path d="M14.5889 10.1067C14.5857 10.3617 14.4853 10.606 14.3081 10.7895C14.131 10.9731 13.8905 11.0821 13.6356 11.0943C13.5051 11.0957 13.3756 11.0711 13.2547 11.0218C13.1338 10.9726 13.024 10.8997 12.9317 10.8074C12.8393 10.7152 12.7663 10.6054 12.7169 10.4846C12.6676 10.3637 12.6428 10.2342 12.6441 10.1037C12.6445 9.97735 12.6699 9.85232 12.719 9.73586C12.768 9.6194 12.8396 9.51383 12.9298 9.42526C13.0199 9.33668 13.1267 9.26687 13.244 9.21986C13.3613 9.17285 13.4867 9.14959 13.6131 9.1514C13.868 9.15259 14.1124 9.25297 14.2946 9.43129C14.4768 9.6096 14.5823 9.85184 14.5889 10.1067V10.1067Z" fill="#FDB21C"/>
</svg>
