<svg width="108" height="21" viewBox="0 0 108 21" fill="none" xmlns="http://www.w3.org/2000/svg">
<path d="M33.2109 7.18872V8.84399H29.915V15.1135H27.8057V7.18872H33.2109ZM34.2217 14.0955C34.2217 13.783 34.3291 13.5217 34.5439 13.3118C34.7637 13.1018 35.0542 12.9968 35.4155 12.9968C35.7769 12.9968 36.0649 13.1018 36.2798 13.3118C36.4995 13.5217 36.6094 13.783 36.6094 14.0955C36.6094 14.408 36.4995 14.6692 36.2798 14.8792C36.0649 15.0891 35.7769 15.1941 35.4155 15.1941C35.0542 15.1941 34.7637 15.0891 34.5439 14.8792C34.3291 14.6692 34.2217 14.408 34.2217 14.0955ZM39.605 4.44946H41.4653L44.2046 12.2791L46.9438 4.44946H48.8042L44.9517 15.1135H43.4575L39.605 4.44946ZM38.6016 4.44946H40.4546L40.7915 12.0813V15.1135H38.6016V4.44946ZM47.9546 4.44946H49.8149V15.1135H47.6177V12.0813L47.9546 4.44946ZM51.2725 11.2317V11.0779C51.2725 10.4968 51.3555 9.96216 51.5215 9.47388C51.6875 8.98071 51.9292 8.55347 52.2466 8.19214C52.564 7.83081 52.9546 7.55005 53.4185 7.34985C53.8823 7.14478 54.4146 7.04224 55.0151 7.04224C55.6157 7.04224 56.1504 7.14478 56.6191 7.34985C57.0879 7.55005 57.481 7.83081 57.7983 8.19214C58.1206 8.55347 58.3647 8.98071 58.5308 9.47388C58.6968 9.96216 58.7798 10.4968 58.7798 11.0779V11.2317C58.7798 11.8079 58.6968 12.3425 58.5308 12.8357C58.3647 13.324 58.1206 13.7512 57.7983 14.1174C57.481 14.4788 57.0903 14.7595 56.6265 14.9597C56.1626 15.1599 55.6304 15.26 55.0298 15.26C54.4292 15.26 53.8945 15.1599 53.4258 14.9597C52.9619 14.7595 52.5688 14.4788 52.2466 14.1174C51.9292 13.7512 51.6875 13.324 51.5215 12.8357C51.3555 12.3425 51.2725 11.8079 51.2725 11.2317ZM53.3818 11.0779V11.2317C53.3818 11.5637 53.4111 11.8738 53.4697 12.1619C53.5283 12.45 53.6211 12.7039 53.748 12.9236C53.8799 13.1384 54.0508 13.3069 54.2607 13.429C54.4707 13.551 54.7271 13.6121 55.0298 13.6121C55.3228 13.6121 55.5742 13.551 55.7842 13.429C55.9941 13.3069 56.1626 13.1384 56.2896 12.9236C56.4165 12.7039 56.5093 12.45 56.5679 12.1619C56.6313 11.8738 56.6631 11.5637 56.6631 11.2317V11.0779C56.6631 10.7556 56.6313 10.4529 56.5679 10.1697C56.5093 9.88159 56.4141 9.62769 56.2822 9.40796C56.1553 9.18335 55.9868 9.00757 55.7769 8.88062C55.5669 8.75366 55.313 8.69019 55.0151 8.69019C54.7173 8.69019 54.4634 8.75366 54.2534 8.88062C54.0483 9.00757 53.8799 9.18335 53.748 9.40796C53.6211 9.62769 53.5283 9.88159 53.4697 10.1697C53.4111 10.4529 53.3818 10.7556 53.3818 11.0779ZM63.3501 13.6121C63.6089 13.6121 63.8384 13.5632 64.0386 13.4656C64.2388 13.363 64.395 13.2214 64.5073 13.0408C64.6245 12.8552 64.6855 12.6379 64.6904 12.3889H66.6753C66.6704 12.9456 66.5215 13.4412 66.2285 13.8757C65.9355 14.3054 65.5425 14.6448 65.0493 14.8938C64.5562 15.1379 64.0044 15.26 63.394 15.26C62.7788 15.26 62.2417 15.1575 61.7827 14.9524C61.3286 14.7473 60.9502 14.4641 60.6475 14.1028C60.3447 13.7366 60.1177 13.3118 59.9663 12.8284C59.8149 12.3401 59.7393 11.8176 59.7393 11.261V11.0486C59.7393 10.4871 59.8149 9.9646 59.9663 9.4812C60.1177 8.99292 60.3447 8.56812 60.6475 8.20679C60.9502 7.84058 61.3286 7.55493 61.7827 7.34985C62.2368 7.14478 62.769 7.04224 63.3794 7.04224C64.0288 7.04224 64.5977 7.16675 65.0859 7.41577C65.5791 7.66479 65.9648 8.02124 66.2432 8.48511C66.5264 8.94409 66.6704 9.48853 66.6753 10.1184H64.6904C64.6855 9.85474 64.6294 9.61548 64.522 9.40063C64.4194 9.18579 64.2681 9.01489 64.0679 8.88794C63.8726 8.7561 63.6309 8.69019 63.3428 8.69019C63.0352 8.69019 62.7837 8.7561 62.5884 8.88794C62.3931 9.01489 62.2417 9.19067 62.1343 9.41528C62.0269 9.63501 61.9512 9.88647 61.9072 10.1697C61.8682 10.448 61.8486 10.741 61.8486 11.0486V11.261C61.8486 11.5686 61.8682 11.864 61.9072 12.1472C61.9463 12.4304 62.0195 12.6819 62.127 12.9016C62.2393 13.1213 62.3931 13.2947 62.5884 13.4216C62.7837 13.5486 63.0376 13.6121 63.3501 13.6121ZM70.147 7.18872V15.1135H68.0376V7.18872H70.147ZM75.2959 7.18872L71.8828 12.1472H69.7734L69.5171 10.199H70.916L72.6226 7.18872H75.2959ZM72.7178 15.1135L70.7695 11.7664L72.6079 10.7483L75.5449 15.1135H72.7178ZM80.2837 11.803H77.8008L77.7861 10.4187H79.8369C80.1104 10.4187 80.3325 10.3918 80.5034 10.3381C80.6743 10.2795 80.7988 10.1941 80.877 10.0818C80.96 9.9646 81.0015 9.823 81.0015 9.65698C81.0015 9.5105 80.9746 9.38599 80.9209 9.28345C80.8721 9.17603 80.7964 9.08813 80.6938 9.01978C80.5913 8.95142 80.4619 8.90259 80.3057 8.87329C80.1543 8.83911 79.9761 8.82202 79.771 8.82202H78.5845V15.1135H76.4751V7.18872H79.771C80.2886 7.18872 80.7524 7.23511 81.1626 7.32788C81.5728 7.41577 81.9219 7.55005 82.21 7.73071C82.5029 7.91138 82.7251 8.14087 82.8765 8.41919C83.0327 8.69263 83.1108 9.01733 83.1108 9.39331C83.1108 9.63745 83.0547 9.86694 82.9424 10.0818C82.835 10.2966 82.6738 10.4871 82.459 10.6531C82.2441 10.8191 81.978 10.9558 81.6606 11.0632C81.3481 11.1658 80.9868 11.2292 80.5767 11.2537L80.2837 11.803ZM80.2837 15.1135H77.2808L78.0059 13.4802H80.2837C80.5425 13.4802 80.7549 13.4485 80.9209 13.385C81.0869 13.3215 81.209 13.2288 81.2871 13.1067C81.3701 12.9797 81.4116 12.8284 81.4116 12.6526C81.4116 12.4817 81.375 12.3328 81.3018 12.2058C81.2285 12.0789 81.1089 11.9812 80.9429 11.9128C80.7817 11.8396 80.562 11.803 80.2837 11.803H78.3135L78.3281 10.4187H80.5693L81.082 10.9753C81.6387 11.0095 82.0977 11.1145 82.459 11.2903C82.8203 11.4661 83.0864 11.6907 83.2573 11.9641C83.4331 12.2327 83.521 12.5281 83.521 12.8503C83.521 13.2263 83.4502 13.5559 83.3086 13.8391C83.167 14.1223 82.957 14.3591 82.6787 14.5496C82.4053 14.7351 82.0684 14.8767 81.668 14.9744C81.2676 15.0671 80.8062 15.1135 80.2837 15.1135ZM89.0947 13.3264V9.79614C89.0947 9.54224 89.0532 9.32495 88.9702 9.14429C88.8872 8.95874 88.7578 8.8147 88.582 8.71216C88.4111 8.60962 88.189 8.55835 87.9155 8.55835C87.6812 8.55835 87.4785 8.59985 87.3076 8.68286C87.1367 8.76099 87.0049 8.87573 86.9121 9.0271C86.8193 9.17358 86.7729 9.34692 86.7729 9.54712H84.6636C84.6636 9.21021 84.7417 8.89038 84.8979 8.58765C85.0542 8.28491 85.2812 8.0188 85.5791 7.78931C85.877 7.55493 86.231 7.37183 86.6411 7.23999C87.0562 7.10815 87.52 7.04224 88.0327 7.04224C88.6479 7.04224 89.1948 7.14478 89.6733 7.34985C90.1519 7.55493 90.5278 7.86255 90.8013 8.27271C91.0796 8.68286 91.2188 9.19556 91.2188 9.81079V13.2019C91.2188 13.6365 91.2456 13.9929 91.2993 14.2712C91.353 14.5447 91.4312 14.7839 91.5337 14.989V15.1135H89.4023C89.2998 14.8987 89.2217 14.6301 89.168 14.3079C89.1191 13.9807 89.0947 13.6536 89.0947 13.3264ZM89.373 10.2869L89.3877 11.4807H88.2085C87.9302 11.4807 87.6885 11.5125 87.4834 11.5759C87.2783 11.6394 87.1099 11.7297 86.978 11.8469C86.8462 11.9592 86.7485 12.0911 86.6851 12.2424C86.6265 12.3938 86.5972 12.5598 86.5972 12.7405C86.5972 12.9211 86.6387 13.0847 86.7217 13.2312C86.8047 13.3728 86.9243 13.4851 87.0806 13.5681C87.2368 13.6462 87.4199 13.6853 87.6299 13.6853C87.9473 13.6853 88.2231 13.6218 88.4575 13.4949C88.6919 13.3679 88.8726 13.2117 88.9995 13.0261C89.1313 12.8406 89.1997 12.6648 89.2046 12.4988L89.7612 13.3923C89.6831 13.5925 89.5757 13.8 89.439 14.0149C89.3071 14.2297 89.1387 14.4324 88.9336 14.6228C88.7285 14.8083 88.4819 14.9622 88.1938 15.0842C87.9058 15.2014 87.564 15.26 87.1685 15.26C86.6655 15.26 86.209 15.1599 85.7988 14.9597C85.3936 14.7546 85.0713 14.4739 84.832 14.1174C84.5977 13.7561 84.4805 13.3459 84.4805 12.887C84.4805 12.4719 84.5586 12.1033 84.7148 11.781C84.8711 11.4587 85.1006 11.1877 85.4033 10.968C85.7109 10.7434 86.0942 10.575 86.5532 10.4626C87.0122 10.3455 87.5444 10.2869 88.1499 10.2869H89.373Z" fill="black"/>
<path d="M27 16.5784H92.0244V17.3108H27V16.5784Z" fill="black"/>
<path d="M99 9.11353L103 13.1135L107 9.11353" stroke="#FDB21C" stroke-width="1.5" stroke-linecap="round" stroke-linejoin="round"/>
<path d="M5.08238 20.1135C4.96259 20.0198 4.81154 19.9469 4.73342 19.8219C4.48342 19.4416 4.75946 18.9521 5.223 18.9416C5.71779 18.9312 6.21259 18.9416 6.70217 18.9364C6.76467 18.9364 6.82717 18.9364 6.93134 18.9364C6.85321 18.8531 6.80634 18.7958 6.75425 18.7437C5.26988 17.2542 3.76467 15.7906 2.31154 14.275C0.660503 12.5562 -0.0947051 10.4677 0.0094616 8.08228C0.17092 4.29582 2.89488 1.09269 6.60321 0.306234C6.99904 0.2229 7.40529 0.176025 7.81154 0.113525C8.17613 0.113525 8.54071 0.113525 8.90529 0.113525C9.24384 0.165609 9.58759 0.196859 9.92092 0.264567C12.9001 0.894775 15.0511 2.5979 16.124 5.44686C17.3949 8.82707 16.697 11.8844 14.197 14.4937C12.8168 15.9364 11.3793 17.3219 9.96779 18.7333C9.9105 18.7906 9.848 18.8323 9.74384 18.9156C9.85321 18.926 9.90009 18.9364 9.94696 18.9364C10.4365 18.9364 10.9209 18.9364 11.4105 18.9364C11.7543 18.9364 11.9886 19.1031 12.0511 19.3896C12.1188 19.6864 11.9782 19.926 11.6553 20.0823C11.6449 20.0875 11.6397 20.0979 11.6293 20.1083C9.44696 20.1135 7.26467 20.1135 5.08238 20.1135ZM8.35842 18.6864C8.39488 18.65 8.42092 18.6292 8.44696 18.6083C10.1188 16.9312 11.8063 15.275 13.4626 13.5771C15.1501 11.8427 15.822 9.74373 15.4574 7.35311C14.8115 3.18123 10.697 0.462484 6.61363 1.49894C3.69175 2.23853 1.56154 4.64478 1.21779 7.64998C0.962587 9.88436 1.60321 11.8583 3.16571 13.4781C4.84279 15.2125 6.56675 16.9 8.26988 18.6083C8.29592 18.6344 8.32196 18.6552 8.35842 18.6864Z" fill="#8A13D1"/>
<path d="M14.2126 8.50407C14.2074 11.7489 11.5719 14.3791 8.34277 14.3687C5.11881 14.3634 2.49902 11.7332 2.49902 8.49886C2.49902 5.25928 5.12923 2.61865 8.3584 2.61865C11.5928 2.62386 14.2178 5.26449 14.2126 8.50407ZM13.0459 8.49365C13.0459 5.90511 10.9521 3.79574 8.36881 3.79053C5.78027 3.78532 3.6709 5.89469 3.6709 8.49365C3.6709 11.0822 5.76465 13.1916 8.34798 13.1968C10.9365 13.202 13.0459 11.0926 13.0459 8.49365Z" fill="#FDB21C"/>
<path d="M7.72314 9.551C7.79085 9.4833 7.84294 9.43642 7.89502 9.38955C8.72835 8.551 9.56689 7.71767 10.4002 6.87913C10.5669 6.70725 10.7596 6.62913 10.9992 6.68121C11.4106 6.76975 11.5825 7.26975 11.3221 7.6083C11.2804 7.66038 11.2336 7.70725 11.1919 7.74892C10.2075 8.7385 9.21794 9.72809 8.23356 10.7177C7.89502 11.0614 7.58252 11.0562 7.24398 10.7177C6.7596 10.2281 6.27002 9.74371 5.78564 9.25413C5.57731 9.04059 5.53564 8.78538 5.66064 8.54059C5.77523 8.32184 6.0096 8.19163 6.26481 8.24892C6.39502 8.28017 6.53044 8.3583 6.62939 8.45205C6.98877 8.7958 7.34294 9.16559 7.72314 9.551Z" fill="#FDB21C"/>
<path d="M0.73343 19.8219C0.811555 19.9469 0.962596 20.0198 1.08239 20.1135C3.26468 20.1135 13.447 20.1135 15.6293 20.1083C15.6397 20.0979 15.6449 20.0875 15.6553 20.0823C15.9782 19.926 16.1188 19.6864 16.0511 19.3896C15.9886 19.1031 15.7543 18.9364 15.4105 18.9364C14.4007 18.9364 2.24352 18.9202 1.22301 18.9417C0.759471 18.9521 0.48343 19.4417 0.73343 19.8219Z" fill="#FDB21C"/>
</svg>
