<svg width="207" height="61" viewBox="0 0 207 61" fill="none" xmlns="http://www.w3.org/2000/svg">
<path d="M78.42 11.9135H90.36V26.1135H87.08V14.7935H81.72V26.1135H78.42V11.9135ZM99.3652 26.2335C98.3118 26.2335 97.3518 26.0269 96.4852 25.6135C95.6185 25.2002 94.8785 24.6602 94.2652 23.9935C93.6518 23.3135 93.1718 22.5402 92.8252 21.6735C92.4918 20.8069 92.3252 19.9135 92.3252 18.9935C92.3252 18.0602 92.4985 17.1602 92.8452 16.2935C93.2052 15.4269 93.6985 14.6669 94.3252 14.0135C94.9652 13.3469 95.7185 12.8202 96.5852 12.4335C97.4518 12.0335 98.3985 11.8335 99.4252 11.8335C100.478 11.8335 101.438 12.0402 102.305 12.4535C103.172 12.8669 103.912 13.4135 104.525 14.0935C105.138 14.7735 105.612 15.5469 105.945 16.4135C106.278 17.2802 106.445 18.1602 106.445 19.0535C106.445 19.9869 106.265 20.8869 105.905 21.7535C105.558 22.6202 105.072 23.3869 104.445 24.0535C103.818 24.7069 103.072 25.2335 102.205 25.6335C101.338 26.0335 100.392 26.2335 99.3652 26.2335ZM95.6652 19.0335C95.6652 19.5802 95.7452 20.1135 95.9052 20.6335C96.0652 21.1402 96.2985 21.5935 96.6052 21.9935C96.9252 22.3935 97.3185 22.7135 97.7852 22.9535C98.2518 23.1935 98.7852 23.3135 99.3852 23.3135C100.012 23.3135 100.558 23.1869 101.025 22.9335C101.492 22.6802 101.878 22.3535 102.185 21.9535C102.492 21.5402 102.718 21.0802 102.865 20.5735C103.025 20.0535 103.105 19.5269 103.105 18.9935C103.105 18.4469 103.025 17.9202 102.865 17.4135C102.705 16.8935 102.465 16.4402 102.145 16.0535C101.825 15.6535 101.432 15.3402 100.965 15.1135C100.512 14.8735 99.9852 14.7535 99.3852 14.7535C98.7585 14.7535 98.2118 14.8802 97.7452 15.1335C97.2918 15.3735 96.9052 15.6935 96.5852 16.0935C96.2785 16.4935 96.0452 16.9535 95.8852 17.4735C95.7385 17.9802 95.6652 18.5002 95.6652 19.0335ZM106.695 23.2335H107.355C107.715 23.2335 108.029 23.1202 108.295 22.8935C108.575 22.6669 108.815 22.2802 109.015 21.7335C109.215 21.1869 109.389 20.4535 109.535 19.5335C109.695 18.6002 109.835 17.4202 109.955 15.9935L110.315 11.9135H119.535V23.2335H121.595V29.5535H118.435V26.1135H109.835V29.5535H106.695V23.2335ZM116.255 23.2335V14.7935H113.275L113.095 16.8335C112.949 18.3802 112.755 19.6735 112.515 20.7135C112.289 21.7535 111.989 22.5935 111.615 23.2335H116.255ZM127.2 11.9135H130.16L135.34 26.1135H131.98L130.88 22.9335H126.46L125.38 26.1135H122.02L127.2 11.9135ZM130.34 20.6735L128.68 15.6535L126.98 20.6735H130.34ZM142.37 11.9135H145.59V26.1135H142.37V20.8135C141.97 20.9869 141.537 21.1202 141.07 21.2135C140.617 21.2935 140.023 21.3335 139.29 21.3335C138.45 21.3335 137.743 21.2135 137.17 20.9735C136.597 20.7202 136.13 20.3735 135.77 19.9335C135.41 19.4935 135.15 18.9802 134.99 18.3935C134.843 17.7935 134.77 17.1469 134.77 16.4535V11.9135H137.99V15.4535C137.99 16.4269 138.163 17.1535 138.51 17.6335C138.857 18.1002 139.483 18.3335 140.39 18.3335C140.817 18.3335 141.197 18.3002 141.53 18.2335C141.863 18.1535 142.143 18.0469 142.37 17.9135V11.9135ZM152.24 11.9135H155.2L160.38 26.1135H157.02L155.92 22.9335H151.5L150.42 26.1135H147.06L152.24 11.9135ZM155.38 20.6735L153.72 15.6535L152.02 20.6735H155.38ZM83.32 49.2335C82.6933 49.2335 82.0667 49.1602 81.44 49.0135C80.8267 48.8669 80.2467 48.6535 79.7 48.3735C79.1667 48.0935 78.6867 47.7469 78.26 47.3335C77.8333 46.9202 77.5133 46.4535 77.3 45.9335L80 44.3535C80.1467 44.7135 80.34 45.0202 80.58 45.2735C80.82 45.5135 81.0867 45.7135 81.38 45.8735C81.6733 46.0202 81.98 46.1335 82.3 46.2135C82.62 46.2802 82.9333 46.3135 83.24 46.3135C83.72 46.3135 84.16 46.2335 84.56 46.0735C84.9733 45.9135 85.3333 45.6935 85.64 45.4135C85.96 45.1202 86.22 44.7869 86.42 44.4135C86.6333 44.0269 86.7933 43.6135 86.9 43.1735H81.88V40.5535H86.82C86.7133 40.1802 86.56 39.8269 86.36 39.4935C86.1733 39.1469 85.9333 38.8469 85.64 38.5935C85.3467 38.3402 85 38.1402 84.6 37.9935C84.2133 37.8335 83.7733 37.7535 83.28 37.7535C82.9733 37.7535 82.66 37.7869 82.34 37.8535C82.0333 37.9069 81.7267 38.0135 81.42 38.1735C81.1267 38.3202 80.8533 38.5202 80.6 38.7735C80.36 39.0135 80.16 39.3202 80 39.6935L77.48 37.9335C77.96 37.0135 78.6867 36.2669 79.66 35.6935C80.6467 35.1202 81.8267 34.8335 83.2 34.8335C84.3467 34.8335 85.3667 35.0402 86.26 35.4535C87.1533 35.8669 87.9 36.4069 88.5 37.0735C89.1133 37.7402 89.58 38.5002 89.9 39.3535C90.22 40.1935 90.38 41.0402 90.38 41.8935C90.38 42.8002 90.2067 43.6935 89.86 44.5735C89.5267 45.4535 89.0467 46.2402 88.42 46.9335C87.8067 47.6269 87.0667 48.1869 86.2 48.6135C85.3333 49.0269 84.3733 49.2335 83.32 49.2335ZM103.986 45.4735C103.986 46.0869 103.859 46.6202 103.606 47.0735C103.352 47.5269 103.006 47.9069 102.566 48.2135C102.126 48.5069 101.612 48.7335 101.026 48.8935C100.439 49.0402 99.8191 49.1135 99.1658 49.1135H92.2458V34.9135H100.146C100.639 34.9135 101.086 35.0202 101.486 35.2335C101.886 35.4469 102.226 35.7269 102.506 36.0735C102.786 36.4069 102.999 36.7935 103.146 37.2335C103.306 37.6602 103.386 38.1002 103.386 38.5535C103.386 39.2335 103.212 39.8735 102.866 40.4735C102.532 41.0735 102.026 41.5269 101.346 41.8335C102.159 42.0735 102.799 42.5002 103.266 43.1135C103.746 43.7269 103.986 44.5135 103.986 45.4735ZM100.646 44.8135C100.646 44.3735 100.519 44.0002 100.266 43.6935C100.012 43.3869 99.6924 43.2335 99.3058 43.2335H95.5258V46.3335H99.1658C99.5924 46.3335 99.9458 46.1935 100.226 45.9135C100.506 45.6335 100.646 45.2669 100.646 44.8135ZM95.5258 37.7135V40.6535H98.7458C99.1058 40.6535 99.4258 40.5335 99.7058 40.2935C99.9858 40.0535 100.126 39.6802 100.126 39.1735C100.126 38.7069 99.9991 38.3469 99.7458 38.0935C99.5058 37.8402 99.2124 37.7135 98.8658 37.7135H95.5258ZM109.622 34.9135H112.582L117.762 49.1135H114.402L113.302 45.9335H108.882L107.802 49.1135H104.442L109.622 34.9135ZM112.762 43.6735L111.102 38.6535L109.402 43.6735H112.762ZM122.501 40.5535H123.241L127.381 34.9135H131.081L125.981 41.7735L131.541 49.1135H127.881L123.541 43.5335H122.501V49.1135H119.221V34.9135H122.501V40.5535ZM135.279 49.2535C135.133 49.2535 134.959 49.2402 134.759 49.2135C134.559 49.1869 134.353 49.1535 134.139 49.1135C133.939 49.0602 133.739 48.9935 133.539 48.9135C133.339 48.8335 133.159 48.7335 132.999 48.6135L133.579 45.9135C133.686 45.9802 133.866 46.0802 134.119 46.2135C134.373 46.3469 134.653 46.4135 134.959 46.4135C135.306 46.4135 135.599 46.3202 135.839 46.1335C136.079 45.9469 136.273 45.6402 136.419 45.2135L131.179 34.9135H134.779L137.899 41.9535L140.779 34.9135H144.239L139.239 45.7135C138.946 46.3535 138.659 46.9002 138.379 47.3535C138.113 47.7935 137.826 48.1535 137.519 48.4335C137.213 48.7135 136.879 48.9202 136.519 49.0535C136.159 49.1869 135.746 49.2535 135.279 49.2535ZM147.591 34.9135H150.551L155.731 49.1135H152.371L151.271 45.9335H146.851L145.771 49.1135H142.411L147.591 34.9135ZM150.731 43.6735L149.071 38.6535L147.371 43.6735H150.731ZM166.543 37.7935H162.223V49.1135H158.943V37.7935H154.603V34.9135H166.543V37.7935ZM173.701 49.2335C172.648 49.2335 171.688 49.0269 170.821 48.6135C169.954 48.2002 169.214 47.6602 168.601 46.9935C167.988 46.3135 167.508 45.5402 167.161 44.6735C166.828 43.8069 166.661 42.9135 166.661 41.9935C166.661 41.0602 166.834 40.1602 167.181 39.2935C167.541 38.4269 168.034 37.6669 168.661 37.0135C169.301 36.3469 170.054 35.8202 170.921 35.4335C171.788 35.0335 172.734 34.8335 173.761 34.8335C174.814 34.8335 175.774 35.0402 176.641 35.4535C177.508 35.8669 178.248 36.4135 178.861 37.0935C179.474 37.7735 179.948 38.5469 180.281 39.4135C180.614 40.2802 180.781 41.1602 180.781 42.0535C180.781 42.9869 180.601 43.8869 180.241 44.7535C179.894 45.6202 179.408 46.3869 178.781 47.0535C178.154 47.7069 177.408 48.2335 176.541 48.6335C175.674 49.0335 174.728 49.2335 173.701 49.2335ZM170.001 42.0335C170.001 42.5802 170.081 43.1135 170.241 43.6335C170.401 44.1402 170.634 44.5935 170.941 44.9935C171.261 45.3935 171.654 45.7135 172.121 45.9535C172.588 46.1935 173.121 46.3135 173.721 46.3135C174.348 46.3135 174.894 46.1869 175.361 45.9335C175.828 45.6802 176.214 45.3535 176.521 44.9535C176.828 44.5402 177.054 44.0802 177.201 43.5735C177.361 43.0535 177.441 42.5269 177.441 41.9935C177.441 41.4469 177.361 40.9202 177.201 40.4135C177.041 39.8935 176.801 39.4402 176.481 39.0535C176.161 38.6535 175.768 38.3402 175.301 38.1135C174.848 37.8735 174.321 37.7535 173.721 37.7535C173.094 37.7535 172.548 37.8802 172.081 38.1335C171.628 38.3735 171.241 38.6935 170.921 39.0935C170.614 39.4935 170.381 39.9535 170.221 40.4735C170.074 40.9802 170.001 41.5002 170.001 42.0335ZM182.736 49.1135V34.9135H188.796C189.476 34.9135 190.096 35.0535 190.656 35.3335C191.23 35.6135 191.716 35.9802 192.116 36.4335C192.53 36.8869 192.85 37.4002 193.076 37.9735C193.316 38.5469 193.436 39.1269 193.436 39.7135C193.436 40.3402 193.323 40.9402 193.096 41.5135C192.883 42.0869 192.576 42.6002 192.176 43.0535C191.79 43.5069 191.316 43.8669 190.756 44.1335C190.196 44.4002 189.576 44.5335 188.896 44.5335H186.016V49.1135H182.736ZM186.016 41.6735H188.696C189.083 41.6735 189.416 41.5069 189.696 41.1735C189.976 40.8402 190.116 40.3535 190.116 39.7135C190.116 39.3802 190.07 39.0935 189.976 38.8535C189.896 38.6135 189.783 38.4135 189.636 38.2535C189.49 38.0935 189.323 37.9802 189.136 37.9135C188.95 37.8335 188.763 37.7935 188.576 37.7935H186.016V41.6735ZM198.158 34.9135H201.118L206.298 49.1135H202.938L201.838 45.9335H197.418L196.338 49.1135H192.978L198.158 34.9135ZM201.298 43.6735L199.638 38.6535L197.938 43.6735H201.298Z" fill="black"/>
<path d="M34.2748 59.8566V52.0397C35.4002 51.7123 36.5166 51.4713 37.5716 51.0654C42.1189 49.3147 44.454 45.9417 44.7632 41.1169C44.8756 39.3923 44.6102 37.6639 43.9856 36.0523C43.3456 34.3755 42.7499 32.6748 42.2588 30.9491C41.7779 29.2575 41.7631 27.5067 41.9939 25.7605C42.0178 25.5741 42.0337 25.3865 42.0587 25.1444C41.4337 25.0312 40.7894 25.1684 40.2648 25.5264C39.0745 26.2858 38.3969 27.4306 38.1321 28.7607C37.7194 30.8377 37.4124 32.9363 37.0953 35.0315C36.8679 36.498 36.5871 37.9395 35.9323 39.2855C35.5014 40.1711 34.8352 40.8066 33.9348 41.2647C33.5017 40.6054 32.9788 40.0915 32.1159 39.9494V60.1135H29.9332V39.9665C29.0874 40.062 28.6031 40.5644 28.1756 41.1363C25.9361 40.0097 25.1266 37.7428 26.0577 35.2315C26.7011 33.4956 27.6663 31.9347 28.6974 30.4125C30.131 28.2957 31.593 26.1971 32.9833 24.053C34.0133 22.4614 34.767 20.7414 34.8773 18.8236C34.9171 18.1415 34.7636 17.4389 34.6499 16.7522C34.5999 16.4339 34.6067 16.2134 34.867 15.9565C36.7303 14.1375 37.3829 11.9184 36.7371 9.40941C36.0766 6.84471 34.3498 5.24745 31.8112 4.5608C31.4145 4.45394 31.2997 4.31865 31.3088 3.92531C31.3338 2.82712 31.3156 1.7278 31.319 0.628481C31.319 0.46364 31.3394 0.298798 31.3508 0.13623C43.881 0.288567 58.0096 10.079 59.9286 26.6154C61.9192 43.8351 49.4402 57.8546 34.2748 59.8566Z" fill="#8A13D1"/>
<path d="M27.7652 51.6634C27.7652 54.4066 27.7652 57.0964 27.7652 59.7861C27.7597 59.8584 27.7491 59.9302 27.7333 60.001C14.3516 59.4132 0.155921 47.8129 0.00131083 30.3636C-0.15671 12.9552 13.9969 0.364766 29.0793 0.113525V4.43351C28.7815 4.5165 28.4518 4.59266 28.1312 4.69725C23.3019 6.2695 21.9104 12.5062 25.6302 15.977C25.816 16.1336 25.9611 16.3328 26.0532 16.5577C26.1452 16.7826 26.1815 17.0265 26.1588 17.2684C26.0451 19.2681 25.5131 21.178 24.5024 22.8844C23.3963 24.7522 22.131 26.5314 20.8646 28.3025C19.5867 30.0953 18.2305 31.8495 17.5836 33.981C16.1933 38.5614 16.4468 42.953 19.5458 46.8364C21.516 49.3056 24.1978 50.721 27.2217 51.5202L27.7652 51.6634Z" fill="#FDBF1C"/>
<path d="M30.2492 14.1888C29.644 14.1874 29.0528 14.0068 28.5502 13.6698C28.0476 13.3327 27.6561 12.8543 27.4252 12.295C27.1942 11.7356 27.1342 11.1204 27.2525 10.527C27.3709 9.93349 27.6625 9.38841 28.0904 8.96051C28.5183 8.5326 29.0634 8.24105 29.6568 8.12266C30.2503 8.00427 30.8655 8.06434 31.4249 8.2953C31.9842 8.52626 32.4626 8.91775 32.7996 9.42035C33.1367 9.92295 33.3173 10.5141 33.3186 11.1193C33.3218 11.5233 33.2446 11.9238 33.0915 12.2977C32.9383 12.6715 32.7124 13.0112 32.4267 13.2968C32.141 13.5825 31.8014 13.8084 31.4276 13.9616C31.0537 14.1147 30.6531 14.1919 30.2492 14.1888V14.1888Z" fill="#FDBF1C"/>
<path d="M34.7544 49.7411C38.1785 48.2814 40.7512 45.9122 42.5179 42.546C42.4462 45.9588 38.6469 49.8479 34.7544 49.7411Z" fill="#9A15EA"/>
</svg>
