<svg width="25" height="25" viewBox="0 0 25 25" fill="none" xmlns="http://www.w3.org/2000/svg">
<path d="M6.98009 0.126045C7.28055 0.238721 7.43705 0.470333 7.54973 0.758283C8.50747 3.15578 9.46522 5.55328 10.423 7.95077C10.6483 8.51415 10.5043 8.84592 9.9347 9.07753C8.95818 9.46564 7.98165 9.86626 7.00512 10.2419C6.82359 10.3107 6.78603 10.4046 6.79855 10.5861C7.0552 13.5971 9.2962 16.3201 12.207 17.1276C12.6765 17.2591 13.171 17.3154 13.653 17.4093C13.8158 17.4406 13.8971 17.3905 13.966 17.2215C14.3478 16.2325 14.7485 15.2497 15.1428 14.2669C15.3682 13.6972 15.7 13.5595 16.2696 13.7849C18.6859 14.7489 21.1022 15.7192 23.5247 16.6832C23.9629 16.8584 24.0943 17.065 24.0881 17.5408C24.038 20.9023 21.3838 23.7692 18.0349 24.0697C16.6765 24.1886 15.3306 24.0572 14.0098 23.7755C8.31342 22.5486 4.20074 19.2935 1.67805 14.0478C0.751603 12.1323 0.2696 10.0854 0.138145 7.95703C0.131885 7.88817 0.113105 7.81932 0.100586 7.75046C0.100586 7.26846 0.100586 6.78019 0.100586 6.29819C0.113105 6.22933 0.138145 6.16047 0.144404 6.09162C0.419835 3.43121 2.34785 1.12135 4.91436 0.395216C5.3588 0.27002 5.82829 0.207422 6.28525 0.113525C6.5106 0.126045 6.74847 0.126045 6.98009 0.126045ZM16.2508 15.2935C16.2133 15.3811 16.1882 15.4437 16.1569 15.5063C15.7813 16.439 15.412 17.3717 15.0364 18.3044C14.8862 18.68 14.6671 18.8428 14.2978 18.8365C13.0646 18.8303 11.869 18.6112 10.7547 18.0791C7.34941 16.4516 5.54034 13.7473 5.36506 9.96642C5.34628 9.54076 5.50278 9.32166 5.9034 9.15891C6.82359 8.78958 7.74378 8.42651 8.65771 8.05719C8.73908 8.02589 8.82046 7.98207 8.9081 7.94451C8.87054 7.85061 8.8455 7.78802 8.82046 7.72542C8.05677 5.81619 7.29307 3.90695 6.52938 1.99146C6.34159 1.52198 6.34159 1.52198 5.83455 1.60961C3.58728 1.99772 1.77821 3.93199 1.54034 6.21055C1.43392 7.21838 1.52782 8.2262 1.67805 9.22151C2.33533 13.4093 4.35098 16.7958 7.66866 19.3999C10.1037 21.3091 12.8831 22.367 15.9566 22.6487C16.8893 22.7364 17.822 22.7739 18.7485 22.5298C20.7704 21.9852 22.3291 20.2325 22.6233 18.1605C22.6546 17.9476 22.617 17.835 22.3917 17.7473C21.3776 17.3592 20.376 16.9461 19.3745 16.5455C18.3416 16.1323 17.3087 15.7192 16.2508 15.2935Z" fill="#8A13D1"/>
</svg>
