<svg width="50" height="50" viewBox="0 0 50 50" fill="none" xmlns="http://www.w3.org/2000/svg">
<path d="M2.03114 49.9831C0.285638 49.2789 -0.289699 48.1321 0.133335 46.2682C0.70736 43.7326 1.52222 41.2946 2.96314 39.1091C4.23614 37.1775 5.88923 35.6832 8.0044 34.7226C8.10587 34.6731 8.21017 34.6296 8.31678 34.5924C8.54912 34.5088 8.80463 34.517 9.03109 34.6155C9.25756 34.714 9.43785 34.8952 9.5351 35.1222C9.74206 35.596 9.57025 36.0945 9.08734 36.3679C8.5784 36.6556 8.03951 36.8885 7.5527 37.21C5.27613 38.6965 3.91466 40.8833 3.01653 43.3798C2.5987 44.537 2.30581 45.741 1.99212 46.9333C1.79036 47.7013 2.07801 48.041 2.85248 48.041H12.0122C12.9337 48.041 12.9454 48.0111 13.3138 47.1923C13.595 46.5702 13.9178 45.9688 14.2354 45.37C14.4449 44.9717 14.7912 44.8142 15.2415 44.8208C17.3359 44.8533 19.4341 44.8129 21.5246 44.9119C25 45.0772 28.2814 44.4029 31.4652 43.0102C36.6197 40.7557 41.8119 38.5846 46.9873 36.3718C47.1823 36.2925 47.3637 36.1832 47.5249 36.0477C48.1965 35.4606 48.0078 34.4115 47.1474 34.1993C46.6752 34.103 46.1868 34.1218 45.7234 34.254C42.4146 35.1209 39.1137 36.023 35.8127 36.9198C35.6477 36.9743 35.4938 37.058 35.3584 37.1671C34.7336 37.6201 34.17 38.198 33.4867 38.5234C30.8803 39.7678 28.1699 40.7814 25.3865 41.5523C25.1869 41.6179 24.9784 41.6521 24.7683 41.6539C24.5385 41.6373 24.3222 41.5394 24.1583 41.3776C23.9944 41.2158 23.8936 41.0008 23.874 40.7713C23.8311 40.3223 24.12 39.9071 24.6082 39.7496C25.8265 39.3591 27.0631 39.0115 28.2632 38.5677C29.7054 38.0314 31.1268 37.4196 32.5416 36.8235C32.8696 36.6836 33.1816 36.5091 33.4724 36.3028C33.8342 36.0425 34.0867 35.7197 33.9058 35.2237C33.7378 34.7591 33.3383 34.431 32.828 34.4779C31.9572 34.5586 31.0903 34.6979 30.2247 34.8137C27.861 35.1274 25.505 35.5804 23.1308 35.7145C21.1666 35.8238 19.179 35.5687 17.2031 35.4541C16.6447 35.4203 16.3023 34.9621 16.344 34.4128C16.3857 33.8635 16.8243 33.4939 17.4231 33.5277C18.2496 33.5759 19.0788 33.6149 19.8962 33.7151C22.1311 33.9885 24.3322 33.7073 26.5346 33.3728C28.4749 33.0778 30.4187 32.8022 32.366 32.5463C33.9279 32.3393 35.2035 33.1398 35.7606 34.6289C35.7879 34.7031 35.8231 34.7734 35.8674 34.8775C37.6324 34.4024 39.3818 33.9286 41.1325 33.4613C42.714 33.0396 44.289 32.5814 45.8848 32.2208C47.7071 31.8082 49.4526 32.86 49.8131 34.6003C49.8131 34.6276 49.8522 34.6497 49.8731 34.6731V35.747C49.4995 37.1788 48.5181 37.9689 47.1695 38.4154C46.6177 38.5989 46.093 38.8618 45.5555 39.0896C40.5428 41.2152 35.5328 43.3577 30.5163 45.4586C28.5287 46.289 26.4526 46.8058 24.2801 46.811C21.7992 46.811 19.317 46.7979 16.8347 46.7849C15.6424 46.7849 15.5786 46.7511 15.1595 47.8783C14.7404 49.0055 14.0141 49.7279 12.8439 50L2.03114 49.9831Z" fill="#8A13D1"/>
<path d="M33.2158 0C33.5594 0.140577 33.929 0.238202 34.2388 0.432146C35.1968 1.0283 35.6537 1.91602 35.6537 3.04585C35.6537 7.03061 35.6537 11.0149 35.6537 14.9988V15.6197C36.0182 15.6197 36.3384 15.6197 36.6586 15.6197C37.6127 15.6353 38.313 16.0662 38.6827 16.95C39.0523 17.8338 38.8453 18.6421 38.1789 19.3203C36.2065 21.3239 34.2297 23.3224 32.2486 25.3156C30.3734 27.2082 28.4968 29.0995 26.619 30.9895C25.5373 32.0764 24.3346 32.0751 23.2556 30.9895C19.4123 27.1132 15.5694 23.2361 11.727 19.358C11.0436 18.6695 10.8223 17.8716 11.1842 16.9526C11.5174 16.1078 12.2775 15.6301 13.259 15.621C13.5636 15.621 13.8668 15.621 14.2156 15.621V3.53526C14.2156 1.47476 14.7363 0.719808 16.6523 0H33.2158ZM24.9334 1.95246H17.5778C16.4363 1.95246 16.1642 2.22191 16.1642 3.35434C16.1642 7.69315 16.1642 12.0363 16.1642 16.3838C16.1642 17.2155 15.8076 17.567 14.9771 17.5722C14.4903 17.5722 14.0022 17.5605 13.5154 17.5722C13.3376 17.5966 13.163 17.6402 12.9947 17.7023C13.0745 17.8532 13.1691 17.9958 13.2772 18.128C17.0242 21.9184 20.7725 25.7087 24.5221 29.4991C24.8527 29.835 25.0349 29.8363 25.3655 29.4991C27.6968 27.1184 30.0515 24.7586 32.3944 22.3909C33.8019 20.9712 35.2073 19.5498 36.6104 18.1267C36.7171 17.9934 36.8104 17.85 36.889 17.6984C36.7173 17.6372 36.5397 17.5936 36.3592 17.5683C35.9219 17.5487 35.4832 17.5683 35.0445 17.5683C34.0136 17.5683 33.7117 17.265 33.7117 16.2315V3.25411C33.7117 2.25835 33.4019 1.95246 32.3944 1.95246H24.9334Z" fill="#FDB21C"/>
<path d="M11.9548 34.4805C11.9523 34.2257 12.0502 33.9802 12.2273 33.7971C12.4043 33.6139 12.6464 33.5078 12.9011 33.5016C13.164 33.5054 13.4148 33.6123 13.5996 33.7993C13.7844 33.9863 13.8884 34.2384 13.889 34.5013C13.8802 34.756 13.7723 34.9972 13.5882 35.1735C13.4041 35.3498 13.1585 35.4472 12.9037 35.445C12.7776 35.4455 12.6527 35.4209 12.5363 35.3724C12.4199 35.3239 12.3144 35.2526 12.2259 35.1628C12.1375 35.0729 12.068 34.9662 12.0214 34.849C11.9748 34.7319 11.9522 34.6065 11.9548 34.4805Z" fill="#8A13D1"/>
<path d="M21.5767 19.8045C21.4111 19.8055 21.2479 19.7644 21.1025 19.6852C20.9571 19.606 20.8342 19.4912 20.7453 19.3515C20.6563 19.2118 20.6042 19.0519 20.5939 18.8866C20.5836 18.7214 20.6154 18.5562 20.6863 18.4065C20.8163 18.1446 20.9596 17.8896 21.1159 17.6425C23.1673 14.0847 25.2191 10.5238 27.2713 6.9599C27.7217 6.17891 28.2215 5.94722 28.7825 6.26613C29.3435 6.58503 29.4047 7.16166 28.9687 7.91791C26.8184 11.6493 24.6693 15.3807 22.5216 19.112C22.2964 19.5012 22.0218 19.785 21.5767 19.8045Z" fill="#FDB21C"/>
<path d="M21.0404 6.14376C21.6201 6.1443 22.1866 6.31703 22.668 6.64003C23.1494 6.96303 23.524 7.42175 23.7443 7.95799C23.9646 8.49423 24.0206 9.08381 23.9053 9.65194C23.7899 10.2201 23.5084 10.7411 23.0965 11.149C22.6846 11.557 22.1608 11.8333 21.5915 11.943C21.0223 12.0528 20.4333 11.991 19.8993 11.7654C19.3652 11.5399 18.9102 11.1608 18.5919 10.6762C18.2737 10.1917 18.1065 9.62351 18.1117 9.04382C18.1162 8.27109 18.4271 7.53171 18.9762 6.98799C19.5253 6.44427 20.2676 6.14065 21.0404 6.14376V6.14376ZM22.0049 9.06074C22.0049 8.80321 21.9026 8.55622 21.7205 8.37412C21.5384 8.19202 21.2914 8.08972 21.0339 8.08972C20.7764 8.08972 20.5293 8.19202 20.3472 8.37412C20.1651 8.55622 20.0629 8.80321 20.0629 9.06074C20.0629 9.31827 20.1651 9.56526 20.3472 9.74736C20.5293 9.92946 20.7764 10.0318 21.0339 10.0318C21.2914 10.0318 21.5384 9.92946 21.7205 9.74736C21.9026 9.56526 22.0049 9.31827 22.0049 9.06074Z" fill="#FDB21C"/>
<path d="M28.8334 13.9536C29.4131 13.9536 29.9797 14.1258 30.4613 14.4483C30.943 14.7708 31.318 15.2292 31.5388 15.7651C31.7596 16.3011 31.8162 16.8906 31.7015 17.4588C31.5868 18.027 31.3059 18.5483 30.8945 18.9566C30.483 19.3649 29.9596 19.6419 29.3905 19.7523C28.8215 19.8627 28.2325 19.8015 27.6982 19.5767C27.1639 19.3518 26.7085 18.9733 26.3896 18.4892C26.0708 18.0051 25.9029 17.4372 25.9073 16.8576C25.9108 16.0846 26.2208 15.3447 26.7695 14.8002C27.3181 14.2557 28.0604 13.9512 28.8334 13.9536V13.9536ZM28.8607 15.9061C28.7315 15.9014 28.6025 15.9227 28.4816 15.9687C28.3607 16.0147 28.2503 16.0845 28.1568 16.1739C28.0634 16.2634 27.9888 16.3706 27.9376 16.4894C27.8863 16.6082 27.8594 16.736 27.8584 16.8654C27.8576 16.9929 27.8819 17.1194 27.9299 17.2375C27.9779 17.3556 28.0487 17.4632 28.1383 17.5539C28.2278 17.6447 28.3344 17.7169 28.4519 17.7665C28.5694 17.8161 28.6955 17.8421 28.823 17.8429C28.9505 17.8438 29.0769 17.8195 29.195 17.7715C29.3132 17.7235 29.4207 17.6527 29.5115 17.5631C29.6023 17.4736 29.6745 17.367 29.7241 17.2495C29.7737 17.132 29.7996 17.0059 29.8005 16.8784C29.8016 16.6259 29.7039 16.383 29.5283 16.2015C29.3527 16.0201 29.1131 15.9145 28.8607 15.9074V15.9061Z" fill="#FDB21C"/>
</svg>
