<svg width="20" height="21" viewBox="0 0 20 21" fill="none" xmlns="http://www.w3.org/2000/svg">
<path d="M9.375 0.113525C9.79167 0.113525 10.2083 0.113525 10.625 0.113525C10.6771 0.123942 10.724 0.139567 10.776 0.144775C11.3958 0.248942 12.026 0.311442 12.6354 0.4729C16.3333 1.44165 19.2292 4.63436 19.849 8.38957C19.9115 8.75415 19.9531 9.12394 20 9.48853C20 9.90519 20 10.3219 20 10.7385C19.9896 10.7906 19.974 10.8375 19.9687 10.8896C19.8385 12.6135 19.3021 14.2021 18.3385 15.6291C16.7448 17.9833 14.5469 19.4364 11.7448 19.9573C11.375 20.025 11 20.0614 10.6302 20.1135C10.2135 20.1135 9.79688 20.1135 9.38021 20.1135C9.33854 20.1031 9.29167 20.0875 9.25 20.0823C7.51563 19.9521 5.91667 19.4156 4.47396 18.4364C2.125 16.8479 0.677083 14.65 0.15625 11.8583C0.0885417 11.4885 0.0520833 11.1135 0 10.7385C0 10.3219 0 9.90519 0 9.48853C0.046875 9.14998 0.078125 8.80623 0.135417 8.46769C0.484375 6.39998 1.39583 4.60832 2.86458 3.11353C4.35937 1.59269 6.16667 0.634359 8.27604 0.264567C8.64062 0.202067 9.01042 0.165609 9.375 0.113525ZM9.86458 13.2854C9.91667 13.3219 9.95833 13.3479 10 13.3791C10.75 13.9312 11.5 14.4833 12.25 15.0354C12.7812 15.426 13.1458 15.2854 13.2865 14.6396C13.6615 12.8791 14.0365 11.1187 14.4115 9.35311C14.5781 8.56665 14.75 7.77498 14.9115 6.98853C14.9635 6.7229 15.0052 6.44686 14.7656 6.24373C14.5312 6.04582 14.2865 6.15519 14.0469 6.24894C11.6667 7.17082 9.28125 8.08748 6.90104 9.00936C6.08333 9.32707 5.26562 9.63957 4.44792 9.96248C4.27083 10.0354 4.0625 10.1396 4.08333 10.3687C4.10417 10.5875 4.31771 10.6448 4.5 10.7021C5.24479 10.9364 5.98958 11.1656 6.72917 11.4052C6.88021 11.4521 6.99479 11.4312 7.125 11.3479C8.92187 10.2125 10.724 9.07707 12.5208 7.94686C12.6094 7.88957 12.6979 7.82707 12.7969 7.80103C12.8646 7.78019 12.9531 7.81144 13.0312 7.82186C13 7.87915 12.974 7.94686 12.9323 7.99373C12.875 8.06144 12.8021 8.11873 12.7344 8.18123C11.3177 9.45727 9.90625 10.7385 8.48437 12.0146C8.375 12.1135 8.32812 12.2177 8.32292 12.3635C8.29687 12.8375 8.26042 13.3114 8.22396 13.7854C8.20312 14.0823 8.1875 14.3792 8.16667 14.6812C8.36979 14.6969 8.50521 14.6031 8.63021 14.4833C9.03646 14.0823 9.44792 13.6812 9.86458 13.2854Z" fill="#8A13D1"/>
</svg>
