<svg width="44" height="51" viewBox="0 0 44 51" fill="none" xmlns="http://www.w3.org/2000/svg">
<path d="M22.5024 0.113525C22.7789 0.1931 23.0594 0.264848 23.3333 0.354859C24.0633 0.591802 24.7273 0.997461 25.2712 1.53894C25.8152 2.08042 26.2238 2.74248 26.4641 3.47142C26.7044 4.20036 26.7695 4.97567 26.6541 5.73447C26.5388 6.49327 26.2462 7.2142 25.8001 7.8388C25.7179 7.95621 25.6344 8.07231 25.5131 8.2432C28.3813 8.75436 31.1125 9.85412 33.5345 11.4732L35.9231 9.09373C35.8018 8.96328 35.6374 8.80283 35.5004 8.62411C35.3508 8.43863 35.2752 8.20437 35.2879 7.96643C35.3007 7.72849 35.401 7.50368 35.5696 7.33526C35.7352 7.16291 35.9601 7.0598 36.1988 7.04673C36.4375 7.03365 36.6723 7.11159 36.8558 7.26482C37.0537 7.43448 37.2419 7.61522 37.4193 7.80619C39.3761 9.76034 41.3329 11.7171 43.2896 13.6765C43.3957 13.7771 43.4963 13.8833 43.591 13.9948C43.7531 14.1803 43.8395 14.42 43.8329 14.6663C43.8264 14.9126 43.7275 15.1474 43.5557 15.324C43.4712 15.4133 43.3699 15.485 43.2576 15.5351C43.1454 15.5851 43.0243 15.6125 42.9014 15.6156C42.7785 15.6188 42.6562 15.5976 42.5415 15.5534C42.4268 15.5092 42.322 15.4428 42.233 15.358C41.8416 14.994 41.509 14.5753 41.1894 14.2126C40.3597 15.041 39.6239 15.778 38.8491 16.549C39.9497 18.0281 40.8405 19.6524 41.4959 21.3756C43.6444 27.1611 43.4031 32.8435 40.7224 38.4112C40.4158 39.0504 39.9775 39.2721 39.4492 39.0934C38.8308 38.8847 38.6103 38.2807 38.9417 37.6128C39.7067 36.0677 40.2684 34.4299 40.6128 32.7405C42.3621 24.2442 37.8472 15.3227 29.9484 11.6962C19.0154 6.67518 6.43868 12.5794 3.3183 24.1986C0.951934 33.0092 5.4368 42.6417 13.77 46.3426C20.7321 49.4342 27.3551 48.6594 33.5332 44.1771C33.7988 43.9742 34.1143 43.8471 34.4464 43.8092C34.8377 43.7844 35.1534 44.0597 35.2721 44.4536C35.4091 44.9024 35.2917 45.3133 34.8925 45.5716C33.6389 46.3817 32.4335 47.3001 31.099 47.9484C19.7825 53.4521 6.32518 48.0723 2.03858 36.2366C-0.374755 29.5745 0.481003 23.1824 4.35669 17.2221C4.43626 17.0995 4.52104 16.9808 4.60061 16.8581C4.61126 16.8376 4.61876 16.8157 4.62281 16.7929L2.39079 14.5753C2.17294 14.8035 1.94205 15.0723 1.68376 15.311C1.24023 15.718 0.670158 15.7141 0.282721 15.3227C-0.104717 14.9314 -0.0955767 14.3444 0.324474 13.9217C2.50474 11.7284 4.69149 9.54248 6.8848 7.36396C7.31398 6.93869 7.89321 6.95565 8.28064 7.34831C8.66808 7.74096 8.65242 8.31364 8.2415 8.74934C8.01974 8.98546 7.76276 9.18766 7.56317 9.36638L9.86169 11.6584C12.3444 9.94335 15.1675 8.78341 18.1388 8.25755C18.0501 8.11796 17.9966 8.02534 17.9353 7.94055C15.8337 5.03542 17.2582 1.11278 20.7282 0.243976C20.8652 0.210059 20.9995 0.157879 21.1352 0.113525H22.5024ZM22.8011 7.72661C23.456 7.5045 24.0096 7.05483 24.3613 6.45928C24.7129 5.86372 24.8393 5.1618 24.7174 4.48101C24.5908 3.78612 24.218 3.16014 23.6673 2.71784C23.1166 2.27554 22.4249 2.04655 21.7191 2.07286C21.0133 2.09918 20.3406 2.37902 19.8243 2.8611C19.3081 3.34317 18.9829 3.99517 18.9084 4.69755C18.7532 6.00206 19.6194 7.36918 20.8039 7.69791C20.813 7.68617 20.83 7.67574 20.83 7.664C20.8378 7.21003 20.8404 6.75084 20.8495 6.29949C20.8639 5.62375 21.2409 5.19718 21.8214 5.19327C22.4019 5.18935 22.7919 5.60418 22.8011 6.28253C22.8063 6.74563 22.8011 7.21394 22.8011 7.72661ZM37.4807 14.8349L39.5352 12.7894L37.3698 10.6278L35.2708 12.7281L37.4807 14.8349ZM3.95489 13.1142L5.91164 15.071L8.02494 12.8964L6.09949 10.9644L3.95489 13.1142Z" fill="#8A13D1"/>
<path d="M36.6406 29.028C36.6862 37.0924 30.0346 43.7689 21.9075 43.8289C13.7191 43.8837 7.08182 37.2607 7.03616 28.9862C6.98659 20.927 13.6513 14.2453 21.7771 14.214C29.9485 14.1775 36.5949 20.8018 36.6406 29.028ZM33.4745 34.4678C34.9773 31.046 35.0791 27.6726 33.7511 24.2261C33.2711 24.4622 32.8653 24.667 32.4531 24.8614C31.8361 25.1536 31.2791 25.0101 31.0182 24.4987C30.7468 23.9665 30.9712 23.4251 31.5987 23.1055C32.0148 22.8942 32.4335 22.6868 32.8523 22.4781C30.722 18.7263 26.4276 16.3312 22.8441 16.2673C22.8265 16.294 22.8136 16.3236 22.8063 16.3547C22.8063 16.793 22.8063 17.2326 22.7959 17.6723C22.7855 18.3532 22.4136 18.7693 21.8214 18.768C21.2292 18.7667 20.8561 18.3402 20.8456 17.6644C20.8378 17.1961 20.8456 16.7278 20.8456 16.2595C17.3091 16.3338 13.1386 18.6702 11.1923 21.8949C11.6006 22.1271 12.0115 22.3554 12.4159 22.5929C12.9977 22.9333 13.1843 23.4812 12.8986 23.9861C12.6129 24.4909 12.0415 24.6122 11.4545 24.2926C11.0449 24.0709 10.6405 23.8373 10.1787 23.5791C8.66938 26.9838 8.58851 30.3625 9.89432 33.8168C10.3561 33.5911 10.7618 33.3889 11.1714 33.1933C11.8159 32.8854 12.3677 33.025 12.6325 33.5598C12.8973 34.0947 12.6729 34.6191 12.0324 34.9465C11.6202 35.1578 11.2014 35.3574 10.784 35.5635C13.1021 39.5579 17.5674 41.7717 20.8078 41.7521C20.8078 41.7378 20.8287 41.7247 20.8287 41.7104C20.8287 41.2707 20.8352 40.8311 20.8417 40.3928C20.8535 39.7132 21.2239 39.2814 21.8005 39.2696C22.4084 39.2566 22.7868 39.6845 22.7933 40.398C22.7933 40.8637 22.7933 41.3294 22.7933 41.8434C26.9299 41.4182 30.1089 39.5279 32.5053 36.174C32.0448 35.9131 31.6182 35.6822 31.2008 35.4357C30.6255 35.0952 30.4559 34.5421 30.7573 34.036C31.0429 33.5572 31.5987 33.4359 32.1674 33.7411C32.5901 33.9629 32.9958 34.199 33.4745 34.4678Z" fill="#FDB21C"/>
<path d="M38.4395 41.6516C38.443 41.7774 38.4211 41.9026 38.3751 42.0198C38.3292 42.137 38.26 42.2437 38.1719 42.3336C38.0837 42.4235 37.9783 42.4946 37.862 42.5429C37.7458 42.5911 37.6209 42.6154 37.4951 42.6143C37.3651 42.6182 37.2357 42.5956 37.1147 42.548C36.9937 42.5003 36.8837 42.4285 36.7913 42.337C36.6989 42.2455 36.6262 42.1362 36.5774 42.0156C36.5286 41.8951 36.5048 41.7659 36.5075 41.6359C36.509 41.5098 36.5357 41.3854 36.5861 41.2698C36.6364 41.1542 36.7094 41.0499 36.8007 40.9629C36.892 40.876 36.9998 40.8083 37.1177 40.7636C37.2356 40.719 37.3612 40.6985 37.4872 40.7032C37.6131 40.699 37.7384 40.7207 37.8556 40.7668C37.9727 40.813 38.0792 40.8826 38.1684 40.9715C38.2576 41.0603 38.3277 41.1665 38.3743 41.2835C38.4209 41.4004 38.4431 41.5257 38.4395 41.6516V41.6516Z" fill="#8A13D1"/>
<path d="M22.8025 23.7772C22.8025 24.4294 22.8169 25.0817 22.796 25.7274C22.7855 26.0379 22.8638 26.2127 23.1651 26.3614C23.7334 26.6347 24.1979 27.0849 24.4888 27.6444C24.7797 28.2039 24.8815 28.8426 24.7788 29.4648C24.6889 30.0969 24.3962 30.6826 23.9447 31.1341C23.4933 31.5855 22.9075 31.8782 22.2755 31.9682C21.5869 32.074 20.883 31.9357 20.2857 31.5771C19.6885 31.2186 19.2354 30.6624 19.0051 30.0049C18.7672 29.3392 18.7773 28.61 19.0334 27.9512C19.2896 27.2923 19.7746 26.7478 20.3996 26.4175C20.7675 26.227 20.8653 26.0261 20.8601 25.6348C20.8392 24.3185 20.8405 23.0023 20.8601 21.6861C20.8692 20.8786 21.5815 20.3985 22.2546 20.7259C22.4265 20.8033 22.5711 20.9307 22.6695 21.0915C22.768 21.2523 22.8157 21.439 22.8064 21.6274C22.8064 21.66 22.8064 21.6926 22.8064 21.7252C22.8029 22.4114 22.8016 23.0954 22.8025 23.7772ZM20.8066 28.943C20.7978 29.081 20.8164 29.2193 20.8615 29.3499C20.9066 29.4806 20.9772 29.601 21.0692 29.7042C21.1612 29.8073 21.2728 29.8912 21.3974 29.9509C21.5221 30.0105 21.6574 30.0449 21.7954 30.0518C22.0696 30.0646 22.3376 29.968 22.5406 29.7832C22.7435 29.5983 22.8647 29.3405 22.8775 29.0663C22.8903 28.7921 22.7937 28.5241 22.6088 28.3211C22.424 28.1182 22.1661 27.997 21.8919 27.9842C21.621 27.9681 21.3548 28.06 21.1514 28.2396C20.948 28.4193 20.8241 28.6722 20.8066 28.943V28.943Z" fill="#FDB21C"/>
</svg>
