<svg width="20" height="21" viewBox="0 0 20 21" fill="none" xmlns="http://www.w3.org/2000/svg">
<path d="M10.5835 20.1117C10.2167 20.1117 9.85482 20.1117 9.48802 20.1117C9.20435 20.0824 8.92069 20.053 8.63703 20.0139C7.21383 19.8183 5.89333 19.339 4.68043 18.5662C4.55327 18.488 4.44567 18.4684 4.30384 18.5124C3.1643 18.8841 2.01498 19.246 0.875441 19.6128C0.811861 19.6324 0.748282 19.652 0.660249 19.6764C1.06129 18.488 1.44277 17.3387 1.83402 16.1893C1.88782 16.0328 1.87804 15.9203 1.78023 15.7785C0.943911 14.5901 0.405931 13.2745 0.156503 11.8366C0.0831424 11.4209 0.0489073 11.0003 0 10.5846C0 10.2324 0 9.88029 0 9.52816C0.00978146 9.45969 0.0244537 9.39122 0.0342351 9.32275C0.0978146 8.88747 0.13694 8.44242 0.229864 8.01203C0.758063 5.59601 2.0052 3.62016 3.98105 2.14316C6.40686 0.328697 9.13099 -0.267973 12.0997 0.348259C14.4912 0.847114 16.4329 2.09914 17.9245 4.03587C19.5287 6.12421 20.1987 8.50111 19.9493 11.1176C19.7488 13.2304 18.9271 15.0987 17.5235 16.6931C15.9731 18.4537 14.0413 19.5493 11.728 19.9601C11.3465 20.0237 10.965 20.0628 10.5835 20.1117ZM13.2196 15.7492C13.5424 15.6856 13.8261 15.666 14.0902 15.578C15.5036 15.0938 15.9829 14.4091 16.0269 13.1033C16.0318 12.8979 15.9536 12.756 15.7677 12.668C15.0292 12.3159 14.2956 11.954 13.5522 11.6067C13.161 11.4209 12.936 11.4942 12.6768 11.8415C12.4811 12.1007 12.2904 12.3648 12.0948 12.624C11.7964 13.0055 11.5764 13.0593 11.1264 12.8783C9.49291 12.2132 8.27022 11.0785 7.35077 9.59174C7.12579 9.22983 7.14047 9.12223 7.42413 8.79944C7.60509 8.59403 7.79582 8.3984 7.96211 8.18321C8.1235 7.98269 8.27022 7.76261 8.15285 7.48873C7.80561 6.66219 7.45836 5.83566 7.10134 5.01402C7.05732 4.91131 6.94973 4.78904 6.85191 4.76459C6.32861 4.63254 5.78084 4.60319 5.34068 4.96022C4.36253 5.75252 4.05931 6.82359 4.24515 8.03649C4.3772 8.88747 4.77824 9.63087 5.26243 10.3351C6.04005 11.4649 6.91549 12.5066 7.96211 13.4016C9.1261 14.3993 10.4759 15.0302 11.9285 15.4606C12.3638 15.5878 12.8137 15.6611 13.2196 15.7492Z" fill="#8A13D1"/>
</svg>
